<svg width="24" height="24" viewBox="0 0 24 24" fill="none" xmlns="http://www.w3.org/2000/svg">
<circle cx="12" cy="12" r="12" fill="#37BD6B"/>
<g clip-path="url(#clip0_2_137)">
<path d="M19.7391 6.3233L9.37485 16.6868C9.30516 16.7568 9.22235 16.8123 9.13117 16.8501C9.03998 16.888 8.94221 16.9075 8.84347 16.9075C8.74473 16.9075 8.64696 16.888 8.55578 16.8501C8.46459 16.8123 8.38178 16.7568 8.3121 16.6868L4.3041 12.6751C4.23441 12.6051 4.1516 12.5496 4.06042 12.5117C3.96923 12.4738 3.87146 12.4543 3.77272 12.4543C3.67398 12.4543 3.57621 12.4738 3.48503 12.5117C3.39384 12.5496 3.31103 12.6051 3.24135 12.6751V12.6751C3.17139 12.7447 3.11588 12.8275 3.078 12.9187C3.04013 13.0099 3.02063 13.1077 3.02063 13.2064C3.02063 13.3052 3.04013 13.4029 3.078 13.4941C3.11588 13.5853 3.17139 13.6681 3.24135 13.7378L7.25085 17.7466C7.67381 18.1687 8.24699 18.4058 8.8446 18.4058C9.4422 18.4058 10.0154 18.1687 10.4383 17.7466L20.8018 7.3853C20.8717 7.31563 20.9271 7.23287 20.9649 7.14175C21.0027 7.05063 21.0222 6.95295 21.0222 6.8543C21.0222 6.75565 21.0027 6.65797 20.9649 6.56685C20.9271 6.47573 20.8717 6.39297 20.8018 6.3233C20.7322 6.25334 20.6494 6.19783 20.5582 6.15996C20.467 6.12208 20.3692 6.10258 20.2705 6.10258C20.1717 6.10258 20.074 6.12208 19.9828 6.15996C19.8916 6.19783 19.8088 6.25334 19.7391 6.3233Z" fill="white"/>
</g>
<defs>
<clipPath id="clip0_2_137">
<rect width="18" height="18" fill="white" transform="translate(3 3)"/>
</clipPath>
</defs>
</svg>
