<svg width="26" height="27" viewBox="0 0 26 27" fill="none" xmlns="http://www.w3.org/2000/svg">
<g clip-path="url(#clip0_105_149)">
<path d="M7.58333 0.5H4.33333C3.18406 0.5 2.08186 0.956546 1.2692 1.7692C0.456546 2.58186 0 3.68406 0 4.83333L0 8.08333C0 9.23261 0.456546 10.3348 1.2692 11.1475C2.08186 11.9601 3.18406 12.4167 4.33333 12.4167H7.58333C8.73261 12.4167 9.83481 11.9601 10.6475 11.1475C11.4601 10.3348 11.9167 9.23261 11.9167 8.08333V4.83333C11.9167 3.68406 11.4601 2.58186 10.6475 1.7692C9.83481 0.956546 8.73261 0.5 7.58333 0.5V0.5ZM9.75 8.08333C9.75 8.65797 9.52173 9.20907 9.1154 9.6154C8.70907 10.0217 8.15797 10.25 7.58333 10.25H4.33333C3.7587 10.25 3.2076 10.0217 2.80127 9.6154C2.39494 9.20907 2.16667 8.65797 2.16667 8.08333V4.83333C2.16667 4.2587 2.39494 3.7076 2.80127 3.30127C3.2076 2.89494 3.7587 2.66667 4.33333 2.66667H7.58333C8.15797 2.66667 8.70907 2.89494 9.1154 3.30127C9.52173 3.7076 9.75 4.2587 9.75 4.83333V8.08333Z" fill="white"/>
<path d="M21.6665 0.5H18.4165C17.2672 0.5 16.165 0.956547 15.3524 1.7692C14.5397 2.58186 14.0832 3.68406 14.0832 4.83334V8.08334C14.0832 9.23261 14.5397 10.3348 15.3524 11.1475C16.165 11.9601 17.2672 12.4167 18.4165 12.4167H21.6665C22.8158 12.4167 23.918 11.9601 24.7306 11.1475C25.5433 10.3348 25.9998 9.23261 25.9998 8.08334V4.83334C25.9998 3.68406 25.5433 2.58186 24.7306 1.7692C23.918 0.956547 22.8158 0.5 21.6665 0.5V0.5ZM23.8332 8.08334C23.8332 8.65797 23.6049 9.20907 23.1986 9.6154C22.7922 10.0217 22.2411 10.25 21.6665 10.25H18.4165C17.8419 10.25 17.2908 10.0217 16.8844 9.6154C16.4781 9.20907 16.2498 8.65797 16.2498 8.08334V4.83334C16.2498 4.2587 16.4781 3.7076 16.8844 3.30127C17.2908 2.89494 17.8419 2.66667 18.4165 2.66667H21.6665C22.2411 2.66667 22.7922 2.89494 23.1986 3.30127C23.6049 3.7076 23.8332 4.2587 23.8332 4.83334V8.08334Z" fill="white"/>
<path d="M7.58333 14.5833H4.33332C3.18405 14.5833 2.08185 15.0399 1.2692 15.8525C0.456538 16.6652 -8.58307e-06 17.7674 -8.58307e-06 18.9167L-8.58307e-06 22.1667C-8.58307e-06 23.3159 0.456538 24.4181 1.2692 25.2308C2.08185 26.0435 3.18405 26.5 4.33332 26.5H7.58333C8.7326 26.5 9.8348 26.0435 10.6475 25.2308C11.4601 24.4181 11.9167 23.3159 11.9167 22.1667V18.9167C11.9167 17.7674 11.4601 16.6652 10.6475 15.8525C9.8348 15.0399 8.7326 14.5833 7.58333 14.5833V14.5833ZM9.74999 22.1667C9.74999 22.7413 9.52172 23.2924 9.11539 23.6987C8.70906 24.1051 8.15796 24.3333 7.58333 24.3333H4.33332C3.75869 24.3333 3.20759 24.1051 2.80126 23.6987C2.39493 23.2924 2.16666 22.7413 2.16666 22.1667V18.9167C2.16666 18.342 2.39493 17.7909 2.80126 17.3846C3.20759 16.9783 3.75869 16.75 4.33332 16.75H7.58333C8.15796 16.75 8.70906 16.9783 9.11539 17.3846C9.52172 17.7909 9.74999 18.342 9.74999 18.9167V22.1667Z" fill="white"/>
<path d="M21.6665 14.5833H18.4165C17.2672 14.5833 16.165 15.0399 15.3524 15.8525C14.5397 16.6652 14.0832 17.7674 14.0832 18.9167V22.1667C14.0832 23.3159 14.5397 24.4181 15.3524 25.2308C16.165 26.0435 17.2672 26.5 18.4165 26.5H21.6665C22.8158 26.5 23.918 26.0435 24.7306 25.2308C25.5433 24.4181 25.9998 23.3159 25.9998 22.1667V18.9167C25.9998 17.7674 25.5433 16.6652 24.7306 15.8525C23.918 15.0399 22.8158 14.5833 21.6665 14.5833V14.5833ZM23.8332 22.1667C23.8332 22.7413 23.6049 23.2924 23.1986 23.6987C22.7922 24.1051 22.2411 24.3333 21.6665 24.3333H18.4165C17.8419 24.3333 17.2908 24.1051 16.8844 23.6987C16.4781 23.2924 16.2498 22.7413 16.2498 22.1667V18.9167C16.2498 18.342 16.4781 17.7909 16.8844 17.3846C17.2908 16.9783 17.8419 16.75 18.4165 16.75H21.6665C22.2411 16.75 22.7922 16.9783 23.1986 17.3846C23.6049 17.7909 23.8332 18.342 23.8332 18.9167V22.1667Z" fill="white"/>
</g>
<defs>
<clipPath id="clip0_105_149">
<rect width="26" height="26" fill="white" transform="translate(0 0.5)"/>
</clipPath>
</defs>
</svg>
