<svg width="26" height="27" viewBox="0 0 26 27" fill="none" xmlns="http://www.w3.org/2000/svg">
<g clip-path="url(#clip0_2_268)">
<path d="M21.6667 0.5H4.33333C3.18406 0.5 2.08186 0.956546 1.2692 1.7692C0.456546 2.58186 0 3.68406 0 4.83333L0 17.8333C0 18.9826 0.456546 20.0848 1.2692 20.8975C2.08186 21.7101 3.18406 22.1667 4.33333 22.1667H7.475L12.2969 26.2432C12.4925 26.4088 12.7405 26.4996 12.9968 26.4996C13.253 26.4996 13.501 26.4088 13.6966 26.2432L18.525 22.1667H21.6667C22.8159 22.1667 23.9181 21.7101 24.7308 20.8975C25.5435 20.0848 26 18.9826 26 17.8333V4.83333C26 3.68406 25.5435 2.58186 24.7308 1.7692C23.9181 0.956546 22.8159 0.5 21.6667 0.5V0.5ZM23.8333 17.8333C23.8333 18.408 23.6051 18.9591 23.1987 19.3654C22.7924 19.7717 22.2413 20 21.6667 20H18.525C18.0129 20.0002 17.5174 20.1817 17.1264 20.5124L13 23.9975L8.87575 20.5124C8.48419 20.1812 7.98785 19.9996 7.475 20H4.33333C3.7587 20 3.2076 19.7717 2.80127 19.3654C2.39494 18.9591 2.16667 18.408 2.16667 17.8333V4.83333C2.16667 4.2587 2.39494 3.7076 2.80127 3.30127C3.2076 2.89494 3.7587 2.66667 4.33333 2.66667H21.6667C22.2413 2.66667 22.7924 2.89494 23.1987 3.30127C23.6051 3.7076 23.8333 4.2587 23.8333 4.83333V17.8333Z" fill="white"/>
<path d="M7.58333 8.0835H13C13.2873 8.0835 13.5629 7.96937 13.766 7.7662C13.9692 7.56304 14.0833 7.28749 14.0833 7.00017C14.0833 6.71285 13.9692 6.4373 13.766 6.23414C13.5629 6.03098 13.2873 5.91684 13 5.91684H7.58333C7.29602 5.91684 7.02047 6.03098 6.8173 6.23414C6.61414 6.4373 6.5 6.71285 6.5 7.00017C6.5 7.28749 6.61414 7.56304 6.8173 7.7662C7.02047 7.96937 7.29602 8.0835 7.58333 8.0835Z" fill="white"/>
<path d="M18.4167 10.25H7.58333C7.29602 10.25 7.02047 10.3641 6.8173 10.5673C6.61414 10.7705 6.5 11.046 6.5 11.3333C6.5 11.6206 6.61414 11.8962 6.8173 12.0994C7.02047 12.3025 7.29602 12.4167 7.58333 12.4167H18.4167C18.704 12.4167 18.9795 12.3025 19.1827 12.0994C19.3859 11.8962 19.5 11.6206 19.5 11.3333C19.5 11.046 19.3859 10.7705 19.1827 10.5673C18.9795 10.3641 18.704 10.25 18.4167 10.25Z" fill="white"/>
<path d="M18.4167 14.5832H7.58333C7.29602 14.5832 7.02047 14.6973 6.8173 14.9005C6.61414 15.1037 6.5 15.3792 6.5 15.6665C6.5 15.9538 6.61414 16.2294 6.8173 16.4326C7.02047 16.6357 7.29602 16.7499 7.58333 16.7499H18.4167C18.704 16.7499 18.9795 16.6357 19.1827 16.4326C19.3859 16.2294 19.5 15.9538 19.5 15.6665C19.5 15.3792 19.3859 15.1037 19.1827 14.9005C18.9795 14.6973 18.704 14.5832 18.4167 14.5832Z" fill="white"/>
</g>
<defs>
<clipPath id="clip0_2_268">
<rect width="26" height="26" fill="white" transform="translate(0 0.5)"/>
</clipPath>
</defs>
</svg>
