<svg width="24" height="25" viewBox="0 0 24 25" fill="none" xmlns="http://www.w3.org/2000/svg">
<path d="M20.527 4.71691L14.5 1.23691C13.7394 0.799534 12.8774 0.569351 12 0.569351C11.1226 0.569351 10.2606 0.799534 9.5 1.23691L3.473 4.71691C2.71388 5.15683 2.08347 5.78824 1.64478 6.54806C1.20608 7.30789 0.974437 8.16953 0.973001 9.04691V16.0069C0.974464 16.8844 1.2061 17.7462 1.64479 18.5062C2.08348 19.2662 2.71387 19.8978 3.473 20.3379L9.5 23.8169C10.2605 24.2546 11.1226 24.4849 12 24.4849C12.8774 24.4849 13.7395 24.2546 14.5 23.8169L20.527 20.3379C21.2861 19.8978 21.9165 19.2662 22.3552 18.5062C22.7939 17.7462 23.0255 16.8844 23.027 16.0069V9.04691C23.0256 8.16953 22.7939 7.30789 22.3552 6.54806C21.9165 5.78824 21.2861 5.15683 20.527 4.71691ZM10.5 2.96991C10.9561 2.70661 11.4734 2.56799 12 2.56799C12.5266 2.56799 13.0439 2.70661 13.5 2.96991L19.527 6.44891C19.6798 6.54551 19.8234 6.65598 19.956 6.77891L13.763 10.3539C13.2268 10.663 12.6189 10.8257 12 10.8257C11.3811 10.8257 10.7732 10.663 10.237 10.3539L4.044 6.77891C4.17657 6.65598 4.32018 6.54551 4.473 6.44891L10.5 2.96991ZM4.473 18.6049C4.01721 18.3408 3.63876 17.9617 3.37551 17.5054C3.11227 17.0491 2.97347 16.5317 2.973 16.0049V9.04691C2.97995 8.86676 3.00372 8.68764 3.044 8.51191L9.237 12.0869C9.78394 12.398 10.3803 12.6128 11 12.7219V22.2909C10.8273 22.238 10.6599 22.169 10.5 22.0849L4.473 18.6049ZM21.027 16.0049C21.0265 16.5317 20.8877 17.0491 20.6245 17.5054C20.3612 17.9617 19.9828 18.3408 19.527 18.6049L13.5 22.0849C13.3401 22.169 13.1727 22.238 13 22.2909V12.7219C13.6197 12.6128 14.2161 12.398 14.763 12.0869L20.956 8.51191C20.9963 8.68764 21.0201 8.86676 21.027 9.04691V16.0049Z" fill="white"/>
</svg>
