<svg width="22" height="22" viewBox="0 0 22 22" fill="none" xmlns="http://www.w3.org/2000/svg">
<g clip-path="url(#clip0_2_70)">
<path d="M21.7312 20.4359L16.2596 14.9643C17.7507 13.1407 18.4838 10.8137 18.3073 8.46475C18.1308 6.11576 17.0582 3.92447 15.3114 2.34412C13.5646 0.763782 11.2772 -0.0847018 8.9223 -0.0258226C6.56743 0.0330566 4.32528 0.994794 2.65961 2.66046C0.993947 4.32613 0.0322097 6.56828 -0.0266695 8.92315C-0.0855486 11.278 0.762935 13.5654 2.34328 15.3123C3.92362 17.0591 6.11491 18.1317 8.4639 18.3082C10.8129 18.4847 13.1398 17.7516 14.9635 16.2605L20.4351 21.7321C20.6079 21.899 20.8395 21.9914 21.0798 21.9894C21.3202 21.9873 21.5501 21.8909 21.7201 21.7209C21.89 21.5509 21.9864 21.321 21.9885 21.0807C21.9906 20.8403 21.8982 20.6088 21.7312 20.4359ZM9.16647 16.5007C7.71607 16.5007 6.29825 16.0706 5.09228 15.2648C3.88632 14.459 2.94639 13.3137 2.39135 11.9737C1.83631 10.6337 1.69108 9.15918 1.97404 7.73665C2.257 6.31412 2.95543 5.00745 3.98102 3.98186C5.0066 2.95628 6.31328 2.25785 7.7358 1.97489C9.15833 1.69193 10.6328 1.83715 11.9728 2.3922C13.3128 2.94724 14.4581 3.88717 15.2639 5.09313C16.0697 6.29909 16.4998 7.71692 16.4998 9.16731C16.4976 11.1116 15.7243 12.9756 14.3495 14.3504C12.9747 15.7251 11.1107 16.4985 9.16647 16.5007Z" fill="#909395"/>
</g>
<defs>
<clipPath id="clip0_2_70">
<rect width="22" height="22" fill="white"/>
</clipPath>
</defs>
</svg>
