<svg width="26" height="27" viewBox="0 0 26 27" fill="none" xmlns="http://www.w3.org/2000/svg">
<g clip-path="url(#clip0_105_159)">
<path d="M13.0001 9.16733C12.1431 9.16733 11.3053 9.42147 10.5926 9.89763C9.88003 10.3738 9.32461 11.0506 8.99663 11.8424C8.66865 12.6342 8.58284 13.5055 8.75004 14.3461C8.91724 15.1866 9.32995 15.9588 9.93598 16.5648C10.542 17.1708 11.3141 17.5835 12.1547 17.7507C12.9953 17.9179 13.8666 17.8321 14.6584 17.5041C15.4502 17.1762 16.127 16.6207 16.6031 15.9081C17.0793 15.1955 17.3334 14.3577 17.3334 13.5007C17.3334 12.3514 16.8769 11.2492 16.0642 10.4365C15.2516 9.62387 14.1494 9.16733 13.0001 9.16733V9.16733ZM13.0001 15.6673C12.5716 15.6673 12.1527 15.5403 11.7964 15.3022C11.4401 15.0641 11.1624 14.7257 10.9984 14.3298C10.8344 13.9339 10.7915 13.4983 10.8751 13.078C10.9587 12.6577 11.165 12.2716 11.468 11.9686C11.7711 11.6656 12.1571 11.4592 12.5774 11.3756C12.9977 11.292 13.4334 11.3349 13.8293 11.4989C14.2252 11.6629 14.5636 11.9406 14.8016 12.2969C15.0397 12.6532 15.1668 13.0721 15.1668 13.5007C15.1668 14.0753 14.9385 14.6264 14.5322 15.0327C14.1258 15.4391 13.5747 15.6673 13.0001 15.6673Z" fill="white"/>
<path d="M23.0686 15.5583L22.5876 15.281C22.8041 14.1028 22.8041 12.895 22.5876 11.7168L23.0686 11.4395C23.4384 11.2261 23.7627 10.9419 24.0228 10.6032C24.2828 10.2645 24.4736 9.87792 24.5843 9.46547C24.6949 9.05302 24.7233 8.62282 24.6677 8.19942C24.6121 7.77602 24.4736 7.36772 24.2602 6.99783C24.0468 6.62794 23.7627 6.30371 23.424 6.04364C23.0853 5.78357 22.6986 5.59276 22.2862 5.4821C21.8737 5.37144 21.4435 5.34311 21.0201 5.39871C20.5967 5.45432 20.1884 5.59277 19.8186 5.80617L19.3365 6.08458C18.426 5.30666 17.3796 4.7036 16.2501 4.30575V3.75C16.2501 2.88805 15.9076 2.0614 15.2982 1.4519C14.6887 0.84241 13.862 0.5 13.0001 0.5C12.1381 0.5 11.3115 0.84241 10.702 1.4519C10.0925 2.0614 9.75005 2.88805 9.75005 3.75V4.30575C8.62056 4.70503 7.57456 5.30957 6.66472 6.08892L6.18047 5.80833C5.43344 5.37736 4.54581 5.26079 3.71284 5.48427C2.87986 5.70775 2.16978 6.25297 1.7388 7C1.30783 7.74703 1.19126 8.63466 1.41474 9.46764C1.63822 10.3006 2.18344 11.0107 2.93047 11.4417L3.41147 11.719C3.19492 12.8972 3.19492 14.105 3.41147 15.2832L2.93047 15.5605C2.18344 15.9915 1.63822 16.7016 1.41474 17.5345C1.19126 18.3675 1.30783 19.2551 1.7388 20.0022C2.16978 20.7492 2.87986 21.2944 3.71284 21.5179C4.54581 21.7414 5.43344 21.6248 6.18047 21.1938L6.66255 20.9154C7.57338 21.6935 8.62012 22.2965 9.75005 22.6943V23.25C9.75005 24.112 10.0925 24.9386 10.702 25.5481C11.3115 26.1576 12.1381 26.5 13.0001 26.5C13.862 26.5 14.6887 26.1576 15.2982 25.5481C15.9076 24.9386 16.2501 24.112 16.2501 23.25V22.6943C17.3796 22.295 18.4256 21.6904 19.3354 20.9111L19.8196 21.1906C20.5667 21.6216 21.4543 21.7381 22.2873 21.5147C23.1202 21.2912 23.8303 20.7459 24.2613 19.9989C24.6923 19.2519 24.8089 18.3643 24.5854 17.5313C24.3619 16.6983 23.8167 15.9882 23.0696 15.5573L23.0686 15.5583ZM20.3082 11.4677C20.6751 12.797 20.6751 14.2008 20.3082 15.5302C20.2442 15.7615 20.2588 16.0076 20.3498 16.2298C20.4407 16.452 20.6029 16.6376 20.8109 16.7576L21.9852 17.4358C22.2342 17.5794 22.4159 17.8161 22.4903 18.0937C22.5648 18.3713 22.5259 18.6672 22.3823 18.9161C22.2386 19.1651 22.0019 19.3468 21.7243 19.4212C21.4467 19.4957 21.1509 19.4568 20.9019 19.3132L19.7254 18.6328C19.5173 18.5123 19.275 18.4644 19.0367 18.4968C18.7983 18.5292 18.5776 18.6399 18.4091 18.8116C17.4449 19.796 16.2301 20.4983 14.8959 20.8428C14.663 20.9027 14.4567 21.0384 14.3094 21.2284C14.1621 21.4185 14.0822 21.6521 14.0823 21.8926V23.25C14.0823 23.5373 13.9682 23.8129 13.765 24.016C13.5618 24.2192 13.2863 24.3333 12.999 24.3333C12.7117 24.3333 12.4361 24.2192 12.2329 24.016C12.0298 23.8129 11.9156 23.5373 11.9156 23.25V21.8937C11.9158 21.6532 11.8359 21.4196 11.6886 21.2295C11.5413 21.0394 11.3349 20.9038 11.1021 20.8439C9.76776 20.498 8.55333 19.7941 7.58989 18.8083C7.42146 18.6367 7.20069 18.5259 6.96237 18.4936C6.72406 18.4612 6.48175 18.509 6.27364 18.6296L5.0993 19.3088C4.97605 19.3811 4.83973 19.4283 4.69817 19.4476C4.55662 19.467 4.41264 19.4581 4.27451 19.4216C4.13639 19.3851 4.00685 19.3216 3.89336 19.2348C3.77987 19.148 3.68466 19.0397 3.61323 18.9159C3.54179 18.7922 3.49553 18.6556 3.47712 18.5139C3.4587 18.3722 3.46849 18.2283 3.50593 18.0904C3.54336 17.9525 3.6077 17.8234 3.69523 17.7105C3.78277 17.5976 3.89177 17.5031 4.01597 17.4325L5.1903 16.7543C5.39825 16.6344 5.56045 16.4487 5.65144 16.2265C5.74242 16.0044 5.75703 15.7583 5.69297 15.5269C5.32611 14.1976 5.32611 12.7937 5.69297 11.4644C5.75588 11.2335 5.74057 10.9883 5.64944 10.7671C5.55831 10.5458 5.39648 10.3609 5.18922 10.2413L4.01489 9.56317C3.76593 9.41951 3.58423 9.18283 3.50977 8.90521C3.43531 8.62759 3.47419 8.33175 3.61785 8.08279C3.76151 7.83383 3.99818 7.65213 4.2758 7.57768C4.55343 7.50322 4.84926 7.54209 5.09822 7.68575L6.27472 8.36608C6.48227 8.48689 6.72407 8.53531 6.96213 8.50374C7.20019 8.47217 7.42101 8.36239 7.58989 8.19167C8.55415 7.20729 9.76893 6.50494 11.1031 6.16042C11.3367 6.10036 11.5436 5.96406 11.691 5.77313C11.8384 5.58219 11.9178 5.34753 11.9167 5.10633V3.75C11.9167 3.46268 12.0309 3.18713 12.234 2.98397C12.4372 2.7808 12.7127 2.66667 13.0001 2.66667C13.2874 2.66667 13.5629 2.7808 13.7661 2.98397C13.9693 3.18713 14.0834 3.46268 14.0834 3.75V5.10633C14.0833 5.34679 14.1632 5.58045 14.3104 5.7705C14.4577 5.96056 14.6641 6.09621 14.897 6.15608C16.2317 6.50183 17.4465 7.20571 18.4102 8.19167C18.5787 8.36334 18.7994 8.47408 19.0377 8.50645C19.2761 8.53881 19.5184 8.49095 19.7265 8.37042L20.9008 7.69117C21.0241 7.61891 21.1604 7.57175 21.3019 7.55239C21.4435 7.53304 21.5875 7.54188 21.7256 7.57839C21.8637 7.61491 21.9933 7.67839 22.1068 7.76517C22.2202 7.85196 22.3154 7.96033 22.3869 8.08406C22.4583 8.20779 22.5046 8.34443 22.523 8.48611C22.5414 8.62778 22.5316 8.7717 22.4942 8.90958C22.4567 9.04746 22.3924 9.17658 22.3049 9.28949C22.2173 9.4024 22.1083 9.49689 21.9841 9.5675L20.8098 10.2457C20.6029 10.3656 20.4416 10.5506 20.3508 10.7718C20.2601 10.9931 20.2451 11.2381 20.3082 11.4688V11.4677Z" fill="white"/>
</g>
<defs>
<clipPath id="clip0_105_159">
<rect width="26" height="26" fill="white" transform="translate(0 0.5)"/>
</clipPath>
</defs>
</svg>
