<svg width="26" height="27" viewBox="0 0 26 27" fill="none" xmlns="http://www.w3.org/2000/svg">
<path d="M15.9835 11.3333C17.03 11.3333 17.8793 12.1827 17.8793 13.2292V18.3739C17.8793 19.6671 17.3656 20.9074 16.4512 21.8218C15.5367 22.7363 14.2965 23.25 13.0033 23.25C11.71 23.25 10.4698 22.7363 9.55534 21.8218C8.6409 20.9074 8.12717 19.6671 8.12717 18.3739V13.2292C8.12717 12.1827 8.97542 11.3333 10.023 11.3333H15.9835ZM15.9835 12.9583H10.023C9.95117 12.9583 9.88228 12.9869 9.83149 13.0377C9.7807 13.0884 9.75217 13.1573 9.75217 13.2292V18.3739C9.75217 19.2362 10.0947 20.0631 10.7044 20.6728C11.3141 21.2825 12.141 21.625 13.0033 21.625C13.8655 21.625 14.6924 21.2825 15.3021 20.6728C15.9118 20.0631 16.2543 19.2362 16.2543 18.3739V13.2292C16.2543 13.1573 16.2258 13.0884 16.175 13.0377C16.1242 12.9869 16.0553 12.9583 15.9835 12.9583ZM4.0625 11.3333H7.72525C7.34305 11.7949 7.10963 12.3615 7.05575 12.9583H4.0625C3.99067 12.9583 3.92178 12.9869 3.87099 13.0377C3.8202 13.0884 3.79167 13.1573 3.79167 13.2292V16.7489C3.7916 17.1583 3.8843 17.5624 4.0628 17.9308C4.2413 18.2992 4.50096 18.6223 4.82228 18.876C5.14359 19.1297 5.51821 19.3072 5.918 19.3953C6.31778 19.4834 6.73233 19.4798 7.1305 19.3847C7.22258 19.9307 7.3905 20.4518 7.62125 20.936C6.97914 21.1078 6.30612 21.1296 5.65424 20.9997C5.00235 20.8698 4.38907 20.5918 3.86181 20.1871C3.33455 19.7823 2.90744 19.2617 2.6135 18.6656C2.31957 18.0694 2.16668 17.4136 2.16667 16.7489V13.2292C2.16667 12.1827 3.016 11.3333 4.0625 11.3333ZM18.2812 11.3333H21.9375C22.984 11.3333 23.8333 12.1827 23.8333 13.2292V16.75C23.8335 17.4143 23.6809 18.0697 23.3874 18.6656C23.0939 19.2615 22.6674 19.7819 22.1407 20.1867C21.614 20.5915 21.0013 20.8698 20.35 21.0001C19.6986 21.1304 19.026 21.1092 18.3842 20.9382C18.616 20.4528 18.7839 19.9318 18.8771 19.3858C19.2748 19.4797 19.6885 19.4825 20.0875 19.3939C20.4864 19.3052 20.86 19.1275 21.1805 18.8739C21.5009 18.6204 21.7599 18.2976 21.9379 17.9298C22.1159 17.562 22.2083 17.1586 22.2083 16.75V13.2292C22.2083 13.1573 22.1798 13.0884 22.129 13.0377C22.0782 12.9869 22.0093 12.9583 21.9375 12.9583H18.9507C18.8969 12.3615 18.6635 11.7949 18.2812 11.3333ZM13 3.75C13.862 3.75 14.6886 4.09241 15.2981 4.7019C15.9076 5.3114 16.25 6.13805 16.25 7C16.25 7.86195 15.9076 8.6886 15.2981 9.2981C14.6886 9.90759 13.862 10.25 13 10.25C12.138 10.25 11.3114 9.90759 10.7019 9.2981C10.0924 8.6886 9.75 7.86195 9.75 7C9.75 6.13805 10.0924 5.3114 10.7019 4.7019C11.3114 4.09241 12.138 3.75 13 3.75ZM20.0417 4.83333C20.76 4.83333 21.4488 5.11867 21.9567 5.62659C22.4647 6.1345 22.75 6.82337 22.75 7.54167C22.75 8.25996 22.4647 8.94884 21.9567 9.45675C21.4488 9.96466 20.76 10.25 20.0417 10.25C19.3234 10.25 18.6345 9.96466 18.1266 9.45675C17.6187 8.94884 17.3333 8.25996 17.3333 7.54167C17.3333 6.82337 17.6187 6.1345 18.1266 5.62659C18.6345 5.11867 19.3234 4.83333 20.0417 4.83333ZM5.95833 4.83333C6.67663 4.83333 7.3655 5.11867 7.87341 5.62659C8.38133 6.1345 8.66667 6.82337 8.66667 7.54167C8.66667 8.25996 8.38133 8.94884 7.87341 9.45675C7.3655 9.96466 6.67663 10.25 5.95833 10.25C5.24004 10.25 4.55116 9.96466 4.04325 9.45675C3.53534 8.94884 3.25 8.25996 3.25 7.54167C3.25 6.82337 3.53534 6.1345 4.04325 5.62659C4.55116 5.11867 5.24004 4.83333 5.95833 4.83333ZM13 5.375C12.569 5.375 12.1557 5.5462 11.851 5.85095C11.5462 6.1557 11.375 6.56902 11.375 7C11.375 7.43098 11.5462 7.8443 11.851 8.14905C12.1557 8.4538 12.569 8.625 13 8.625C13.431 8.625 13.8443 8.4538 14.149 8.14905C14.4538 7.8443 14.625 7.43098 14.625 7C14.625 6.56902 14.4538 6.1557 14.149 5.85095C13.8443 5.5462 13.431 5.375 13 5.375ZM20.0417 6.45833C19.7543 6.45833 19.4788 6.57247 19.2756 6.77563C19.0725 6.9788 18.9583 7.25435 18.9583 7.54167C18.9583 7.82898 19.0725 8.10453 19.2756 8.3077C19.4788 8.51086 19.7543 8.625 20.0417 8.625C20.329 8.625 20.6045 8.51086 20.8077 8.3077C21.0109 8.10453 21.125 7.82898 21.125 7.54167C21.125 7.25435 21.0109 6.9788 20.8077 6.77563C20.6045 6.57247 20.329 6.45833 20.0417 6.45833ZM5.95833 6.45833C5.67102 6.45833 5.39547 6.57247 5.1923 6.77563C4.98914 6.9788 4.875 7.25435 4.875 7.54167C4.875 7.82898 4.98914 8.10453 5.1923 8.3077C5.39547 8.51086 5.67102 8.625 5.95833 8.625C6.24565 8.625 6.5212 8.51086 6.72437 8.3077C6.92753 8.10453 7.04167 7.82898 7.04167 7.54167C7.04167 7.25435 6.92753 6.9788 6.72437 6.77563C6.5212 6.57247 6.24565 6.45833 5.95833 6.45833Z" fill="white"/>
</svg>
